<?xml version="1.0" encoding="UTF-8" standalone="no"?>
<!-- Created with Inkscape (http://www.inkscape.org/) -->

<svg
   xmlns:dc="http://purl.org/dc/elements/1.1/"
   xmlns:cc="http://creativecommons.org/ns#"
   xmlns:rdf="http://www.w3.org/1999/02/22-rdf-syntax-ns#"
   xmlns:svg="http://www.w3.org/2000/svg"
   xmlns="http://www.w3.org/2000/svg"
   xmlns:sodipodi="http://sodipodi.sourceforge.net/DTD/sodipodi-0.dtd"
   xmlns:inkscape="http://www.inkscape.org/namespaces/inkscape"
   id="svg4874"
   height="96"
   viewBox="0 0 96 96.000001"
   width="96"
   version="1.1"
   sodipodi:docname="media-playlist-repeat-one - Copy.svg"
   inkscape:version="0.92.4 (5da689c313, 2019-01-14)">
  <defs
     id="defs12" />
  <sodipodi:namedview
     pagecolor="#ffffff"
     bordercolor="#666666"
     borderopacity="1"
     objecttolerance="10"
     gridtolerance="10"
     guidetolerance="10"
     inkscape:pageopacity="0"
     inkscape:pageshadow="2"
     inkscape:window-width="1842"
     inkscape:window-height="1051"
     id="namedview10"
     showgrid="false"
     inkscape:zoom="2.4583333"
     inkscape:cx="48.610169"
     inkscape:cy="48"
     inkscape:window-x="69"
     inkscape:window-y="-9"
     inkscape:window-maximized="1"
     inkscape:current-layer="svg4874" />
  <metadata
     id="metadata4879">
    <rdf:RDF>
      <cc:Work
         rdf:about="">
        <dc:format>image/svg+xml</dc:format>
        <dc:type
           rdf:resource="http://purl.org/dc/dcmitype/StillImage" />
        <dc:title />
      </cc:Work>
    </rdf:RDF>
  </metadata>
  <rect
     x="-2.7465819e-06"
     y="-96"
     width="96"
     height="96"
     transform="rotate(90)"
     style="color:#000000;fill:none"
     id="rect4782-45" />
  <path
     inkscape:connector-curvature="0"
     style="color:#000000;font-variant-ligatures:none;font-variant-position:normal;font-variant-caps:normal;font-variant-numeric:normal;font-variant-alternates:normal;font-feature-settings:normal;text-indent:0;text-decoration:none;text-decoration-line:none;text-decoration-style:solid;text-decoration-color:#000000;text-transform:none;white-space:normal;shape-padding:0;isolation:auto;mix-blend-mode:normal;solid-color:#000000;fill:#808080;color-rendering:auto;image-rendering:auto;shape-rendering:auto"
     d="m 92.001,68.005 c 0,2.6304 -0.23773,4.7117 -0.8965,6.4662 -0.65858,1.7545 -1.8499,3.1599 -3.3555,3.9906 -3.0112,1.6614 -6.6938,1.4842 -11.727,1.5424 H 19.979 C 14.9463,79.946 11.2637,80.12325 8.252,78.4618 6.7464,77.63109 5.5552,76.2257 4.8965,74.4712 4.23792,72.7167 4.00003,70.6354 4.00003,68.005 V 32.004 c 0,-2.6304 0.23773,-4.7117 0.89647,-6.4662 0.65862,-1.7545 1.8499,-3.1599 3.3555,-3.9906 3.0113,-1.6614 6.6938,-1.4842 11.727,-1.5424 H 36.07 v 3.9984 H 20.023 c -5.0542,0.0584 -8.3709,0.23705 -9.8379,1.0465 -0.73353,0.40471 -1.1527,0.85205 -1.543,1.8918 -0.39031,1.0398 -0.64063,2.6928 -0.64063,5.0624 v 36.001 c 0,2.3696 0.2502,4.0227 0.64063,5.0624 0.39031,1.0398 0.80946,1.4871 1.543,1.8918 1.4645,0.80804 4.7768,0.98773 9.8164,1.0465 h 55.999 c 5.0383,-0.0588 8.3521,-0.23856 9.8164,-1.0465 0.73353,-0.40471 1.1526,-0.85205 1.543,-1.8918 0.39035,-1.0398 0.64063,-2.6928 0.64063,-5.0624 v -36.001 c 0,-2.3696 -0.2502,-4.0227 -0.64063,-5.0624 -0.39031,-1.0398 -0.80942,-1.4871 -1.543,-1.8918 -1.4643,-0.80792 -4.7782,-0.98769 -9.8164,-1.0465 h -14.025 v -3.9984 h 14.048 c 5.0328,0.0582 8.7153,-0.11906 11.727,1.5424 1.5056,0.83071 2.6969,2.2361 3.3555,3.9906 0.65862,1.7545 0.8965,3.8358 0.8965,6.4662 v 36.001 z"
     id="path4174" />
  <path
     inkscape:connector-curvature="0"
     d="m 31.001,10 0.0076,24 c 3.6501,-1.6688 7.366,-3.5359 11.149,-5.5987 3.7477,-2.0678 7.3628,-4.2005 10.843,-6.4003 -3.48,-2.1557 -7.0951,-4.2681 -10.843,-6.3358 C 38.3723,13.6013 34.6543,11.7133 31.0026,10 Z"
     style="color:#000000;fill:#808080"
     id="path5588-9-2-96" />
  <text
     x="47.377899"
     y="60.000111"
     xml:space="preserve"
     style="font-weight:500;font-size:33.06200027px;line-height:125%;font-family:Ubuntu;text-align:center;letter-spacing:0px;word-spacing:0px;text-anchor:middle;fill:#808080"
     id="text4199"><tspan
       y="60.000111"
       style="font-weight:500;font-family:Ubuntu;fill:#808080;stroke-width:1px"
       x="47.377899"
       id="tspan4197">#</tspan></text>
</svg>
