<?xml version="1.0" encoding="utf-8"?>
<!-- Generator: Adobe Illustrator 19.0.0, SVG Export Plug-In . SVG Version: 6.00 Build 0)  -->
<svg version="1.1" id="Layer_1" xmlns="http://www.w3.org/2000/svg" xmlns:xlink="http://www.w3.org/1999/xlink" x="0px" y="0px"
	 xml:space="preserve">
<style type="text/css">
	.st0{fill:#57BA63;}
	.st1{fill:#FFFFFF;}
</style>
<g id="XMLID_1_">
	<path id="XMLID_3_" class="st0" d="M23.2,20.5h49.5c1.5,0,2.7,1.2,2.7,2.7v49.5c0,1.5-1.2,2.7-2.7,2.7H23.2c-1.5,0-2.7-1.2-2.7-2.7
		V23.2C20.5,21.7,21.7,20.5,23.2,20.5z"/>
	<path id="XMLID_7_" class="st1" d="M56,58.6c-0.2,0-0.4-0.1-0.6-0.2c0,0-0.2-0.1-0.7-0.4c-0.5-0.3-1.2-0.6-2-1
		c-1.7-0.8-4.2-1.6-6.9-1.9c-0.8-0.1-1.6-0.2-2.4-0.2c-3.4-0.1-6.2,0.4-7.3,0.7c-0.4,0.1-0.5,0.1-0.5,0.1c-0.6,0.2-1.3-0.2-1.4-0.8
		c-0.2-0.6,0.2-1.3,0.8-1.5c0.1,0,3.6-1.1,8.5-0.9c0.8,0,1.7,0.1,2.6,0.2c6,0.7,10.5,3.6,10.6,3.6c0.5,0.3,0.7,1.1,0.4,1.6
		C56.7,58.4,56.4,58.6,56,58.6z M60.2,51.6c-0.3,0.5-0.8,0.7-1.3,0.7c-0.2,0-0.5-0.1-0.7-0.2c0,0-0.1,0-0.2-0.1
		c-0.1-0.1-0.3-0.2-0.6-0.3c-0.5-0.3-1.3-0.7-2.3-1.1c-2-0.9-4.8-1.8-7.9-2.2c-1-0.1-1.9-0.2-2.8-0.2c-4-0.1-7.1,0.5-8.4,0.8
		C35.6,49,35.4,49,35.4,49c-0.8,0.2-1.6-0.2-1.8-1c-0.2-0.8,0.2-1.6,1-1.8c0.1,0,4.1-1.2,9.9-1c1,0,2,0.1,3,0.2
		c7,0.8,12.2,4.2,12.3,4.2C60.4,50,60.6,50.9,60.2,51.6z M63.6,45.1c-0.3,0.6-0.9,0.8-1.5,0.8c-0.3,0-0.6-0.1-0.9-0.3
		c0,0-0.1,0-0.2-0.1c-0.2-0.1-0.4-0.2-0.7-0.4c-0.6-0.3-1.6-0.8-2.8-1.3c-2.4-1-5.6-2.1-9.3-2.6C47.1,41.1,46,41,44.9,41
		c-5.5-0.2-9.5,0.8-10.4,1c-0.1,0-0.2,0-0.2,0c-0.9,0.3-1.9-0.3-2.2-1.2c-0.3-0.9,0.3-1.9,1.2-2.2c0.1,0,4.9-1.4,11.7-1.2
		c1.1,0,2.3,0.1,3.5,0.3c8.2,1,14.3,4.9,14.5,5C63.9,43.2,64.1,44.3,63.6,45.1z"/>
</g>
</svg>
